<svg id="Lager_1" data-name="Lager 1" xmlns="http://www.w3.org/2000/svg" viewBox="0 0 609.28 127.78"><defs><style>.cls-1{fill:#c40d3c;}.cls-2{fill:#1d1d1b;}.cls-3{fill:#1d1e1b;}</style></defs><title>Brandskyddsforeningen_HetaArbeten_Logo_PMS193</title><path class="cls-1" d="M174,226.78c4.2.58,7.65,5,9.76,8.23l2.34,3.61c.3.41.73.34,1.19.34,1.65-.16,2.51-5.59,1.92-8.22,0-.14-.07-.66-.18-1.15,1.91,1.16,3.5,6.8,3.5,10.88,0,1.61-.1,3.18-.09,4.79a1.55,1.55,0,0,0,1.9.87c1.82-1,3.2-3,4-5.85.56,3.52-1.72,11.4-3.93,16.32-.25.43-.41.87-.65,1.3,0,0-.09,0-.09-.06L192,254.39a29.35,29.35,0,0,0-4.59-6.55,26.39,26.39,0,0,0-4.08-3.6c-.74-.53-2.2-1.42-2.89-1.88a29.43,29.43,0,0,0-.56-4.24c-1-4.48-2.16-8.47-5.91-11.34" transform="translate(-120.33 -226.78)"/><path class="cls-1" d="M211.4,230.62c1.73,1,3.19,3.14,4.32,4.65,6.69,8.93,6.34,20.4,4.29,31.72-.2,1.13-1.32,4.14.33,4.64a1.46,1.46,0,0,0,1-.09c6-2.63,10.26-11.47,11.26-17.54a47.69,47.69,0,0,0,.11-7.23c1.41,1.07,2.6,4.21,3.27,5.82,4.21,10.23,1,20.35-2.49,29.65-1,2.78-2.71,5.34-3.16,8.41a1.4,1.4,0,0,0,.14,1,1.46,1.46,0,0,0,1.25.62l.34-.06c6.5-2.6,12-8.89,14.71-15.11.15-.34,1.06-2.43,1.21-2.61,2.51,10.4,0,19.13-6.9,26.43-2.91,3.09-6.54,5.31-9.58,8.08-1,.92-1,2.56.68,2.56a19.46,19.46,0,0,0,2.16-.41,41.09,41.09,0,0,0,4.51-1.5,28.87,28.87,0,0,0,10.66-7.74c.67-.78,1.77-2.18,1.79-2.18-1.17,9.05-7.66,15.63-15.33,19.8-1.48.8-6.45,2.67-7,4.22-.81,2.15,2.55,2,3.93,2a17.83,17.83,0,0,0,3.73-.58,74.56,74.56,0,0,0,8.39-3.44,7.93,7.93,0,0,1-2,3,24.53,24.53,0,0,1-13.17,7.8c-1.15.25-7.29.86-7.72,1.47-1.78,2.55,7.31,5,10.46,4.84.48,0,2-.05,1.86-.05a13,13,0,0,1-3.47,3c-6.13,3.38-13.07,2.89-19.18.08-2-.93-4.77-3.52-7-3.6a2,2,0,0,0-1.51.64c-1.74,1.74,1.29,5.65,2.43,7.08a26.33,26.33,0,0,0,7.23,6.35l1,.57c-.91.05-10.34-1.11-14.86-2.92-2.15-.86-6-3.26-7.82-3.33-1.5-.06-2.9,1.69-4,2.58-.77.59-1.5,1-2.25,1.48a27.74,27.74,0,0,1-8.61,3.33,24.66,24.66,0,0,1-6,.5s7.81-9.65,4.56-10.71c-1.09-.35-6.61,3.49-8.12,4.17a24.91,24.91,0,0,1-4.77,1.48,26.79,26.79,0,0,1-8.92.48,18.94,18.94,0,0,1-3.57-1,38.22,38.22,0,0,0,4.53-.34,14.74,14.74,0,0,0,3.11-1c1.11-.47,6.22-3.39,5.46-5-.55-1.2-3-.42-3.95-.35-10.65.76-15.83-1.75-19.76-3.61-.53-.26-4.27-2-5.47-3.46,7.05,1.7,13.51.05,14.74-.09,1.72-.36,5.09-1,4.18-3a1.94,1.94,0,0,0-1.08-.87L146.71,330a44.3,44.3,0,0,1-5.77-2.05c-9-3.7-17.17-11.29-19.85-20.86-.54-1.93-1-5.58-.67-6.11,3.37,5.34,11,12.59,17.66,12.59a.91.91,0,0,0,.62-.53c1.05-1.46-1.56-3-2.47-3.74a41.31,41.31,0,0,1-15.73-29,21.28,21.28,0,0,1,0-3.66c0-.1.07-.2.1-.29v.05c.45.8.89,1.6,1.33,2.4.65,1,1.31,1.91,2,2.88,1.63,2.1,9.16,9.33,11.73,6.84a1.88,1.88,0,0,0,.28-2c-.92-3-2.69-5.49-3.78-8.37-3.17-8.32-1.73-17.51,2-25.21a35.08,35.08,0,0,1,3.12-4.12c.32-.4-.42,2.2-.56,2.76-1.53,6,.94,11.9,4.53,16.1.79.93,1.77,2.21,3.1,2.21a1.26,1.26,0,0,0,1.07-.79c.52-1.12-.37-3.33-.46-4.64-.14-1.74-.28-3.49-.41-5.24a32.32,32.32,0,0,1,5.14-19l1.89-2.67c-.22.9-.45,1.79-.67,2.69a22.48,22.48,0,0,0-.7,3.84c-.46,3.88.92,16.43,5.57,16.43a1.91,1.91,0,0,0,1.69-1.7c.35-2.11-.64-4.42-.8-6.52a24.47,24.47,0,0,1,4.29-16.19,15.78,15.78,0,0,1,1.35-1.7c-.59,4.52-1.6,9.28-.44,13.91,1.67,6.69,6.72,11.92,6.6,19.55-.09,5.77-2.55,10.81-4.57,15.68-1.2,2.89-3,6.2-2.48,9.73,0,.13.06.27.08.4a8.13,8.13,0,0,0,8.21,6.65l.69-.06.36-.06.34-.06a17.39,17.39,0,0,0,3.84-1.63,14.8,14.8,0,0,0,5.2-8c2.59-8.79,1-17.1-2.64-24.75a40.66,40.66,0,0,0-3.74-6.35l-2-2.43c.23-.34,1.29.05,1.52.13,3.41,1.2,5.64,4.24,7.79,7,2,2.62,3.49.15,2.41-2.28-1.94-4.35-6.55-10.59-11.71-11.29l-2.15-.09h-.06v-.06h.06a7.52,7.52,0,0,1,5.21-2.61,13,13,0,0,1,6.5,1.73,20.67,20.67,0,0,1,7.58,8.74,55.27,55.27,0,0,1,5.21,18.25c.92,7.05.91,14.35,2.5,21.09.45,1.9.9,4.5,3.36,4.5l1.15-.65.2-.21c.12-.16.24-.31.35-.47l.21-.31.31-.51c.06-.13.13-.25.2-.38s.19-.36.27-.55.22-.52.33-.77c1.87-5.22.58-11.41,0-16.83a73.62,73.62,0,0,1,0-17.49,41.61,41.61,0,0,1,4.16-12.78c2.27-4.45,5.52-8.14,5.61-13.74l0-.92c0-.14,0-.28,0-.42l-.06-.47c0-.1,0-.2,0-.3a1.92,1.92,0,0,0,0-.22,2,2,0,0,0,0-.24c-.07-.34-.13-.68-.21-1l0-.15c-.08-.27-.14-.53-.22-.8l-.39-1.23a.87.87,0,0,0-.07-.17l-.06-.18-.17-.64" transform="translate(-120.33 -226.78)"/><path class="cls-1" d="M174.74,271.13a39.32,39.32,0,0,1,1.82,6.68c.39,3.26.36,15-5.26,14a2.63,2.63,0,0,1-2.07-1.28c-1.88-3.93,1-6.07,3.38-11a21.8,21.8,0,0,0,2.13-8.34" transform="translate(-120.33 -226.78)"/><path class="cls-2" d="M276.9,333.71c3.86,0,5.9,2.1,5.9,5a4.18,4.18,0,0,1-2.91,4c2.83.53,4.57,2.52,4.57,4.9,0,3.81-3.59,5.21-7,5.21h-6.1v-19.1ZM274.1,342H276c2.88,0,4-1.49,4-3.06,0-1.93-1-2.77-3.53-2.77H274.1ZM277,350.4c3.16,0,4.65-.95,4.65-3,0-1.85-1.29-3.05-4.76-3.05H274.1v6.1Z" transform="translate(-120.33 -226.78)"/><path class="cls-2" d="M292.38,333.71c3.81,0,5.8,2.52,5.8,5.32a4.77,4.77,0,0,1-3.2,4.71c1.12.73,1.66,1.17,3.5,4l3.36,5.1H298.6l-3-4.7c-1.93-3-3.13-3.62-4.48-3.62h-1.23v8.32h-2.74v-19.1Zm-2.52,8.38h1.76c2,0,3.76-.51,3.76-3.06,0-1.84-1.13-2.91-3.2-2.91h-2.32Z" transform="translate(-120.33 -226.78)"/><path class="cls-2" d="M312,333.6l8.54,19.21h-2.8l-2.55-5.63h-8.12l-2.41,5.63h-2.8l8.21-19.21Zm-3.89,11.12h6L311,337.33Z" transform="translate(-120.33 -226.78)"/><path class="cls-2" d="M324.89,333.71l12.79,14.82V333.71h2.63v19.1h-2.37l-12.69-14.7v14.7h-2.63v-19.1Z" transform="translate(-120.33 -226.78)"/><path class="cls-2" d="M351.21,333.71c6.38,0,10.3,4,10.3,9.33,0,5.91-4.23,9.77-10.28,9.77H344v-19.1Zm-.12,16.64c4.82,0,7.59-2.69,7.59-7.23,0-4.11-2.57-7-8-7h-4v14.2Z" transform="translate(-120.33 -226.78)"/><path class="cls-2" d="M374.14,334.81v3.1a6.29,6.29,0,0,0-4.48-2c-1.74,0-2.8.89-2.8,2.21,0,1.06.22,2,3.14,3.67,4,2.32,4.9,3.66,4.9,6.27,0,2.8-2.22,5-5.55,5a8.61,8.61,0,0,1-5.15-1.76v-3.47a6.51,6.51,0,0,0,5.15,2.8,2.58,2.58,0,0,0,2.8-2.52c0-1.29-.36-2.16-4.14-4.37-2.83-1.65-3.89-3.17-3.89-5.52,0-2.71,2.35-4.76,5.62-4.76A8,8,0,0,1,374.14,334.81Z" transform="translate(-120.33 -226.78)"/><path class="cls-2" d="M381,333.71v8.74l8-8.74h3.42l-8.29,9.05,10.33,10.05h-3.75L381,343.37v9.44h-2.77v-19.1Z" transform="translate(-120.33 -226.78)"/><path class="cls-2" d="M397.8,333.71l5.12,6.58,5.18-6.58h3.31l-7.06,9v10.11h-2.8V342.7l-7.06-9Z" transform="translate(-120.33 -226.78)"/><path class="cls-2" d="M420.76,333.71c6.38,0,10.3,4,10.3,9.33,0,5.91-4.23,9.77-10.27,9.77h-7.28v-19.1Zm-.11,16.64c4.81,0,7.58-2.69,7.58-7.23,0-4.11-2.57-7-8-7h-4v14.2Z" transform="translate(-120.33 -226.78)"/><path class="cls-2" d="M441.67,333.71c6.39,0,10.31,4,10.31,9.33,0,5.91-4.23,9.77-10.28,9.77h-7.28v-19.1Zm-.11,16.64c4.82,0,7.59-2.69,7.59-7.23,0-4.11-2.58-7-8-7h-4v14.2Z" transform="translate(-120.33 -226.78)"/><path class="cls-2" d="M464.61,334.81v3.1a6.31,6.31,0,0,0-4.48-2c-1.74,0-2.8.89-2.8,2.21,0,1.06.22,2,3.13,3.67,4,2.32,4.9,3.66,4.9,6.27,0,2.8-2.21,5-5.54,5a8.59,8.59,0,0,1-5.15-1.76v-3.47a6.51,6.51,0,0,0,5.15,2.8,2.59,2.59,0,0,0,2.8-2.52c0-1.29-.37-2.16-4.15-4.37-2.82-1.65-3.89-3.17-3.89-5.52,0-2.71,2.35-4.76,5.63-4.76A8,8,0,0,1,464.61,334.81Z" transform="translate(-120.33 -226.78)"/><path class="cls-2" d="M478.89,333.71v2.47h-7.45v5.29h7.45v2.46h-7.45v8.88h-2.75v-19.1Z" transform="translate(-120.33 -226.78)"/><path class="cls-2" d="M501.48,343.23c0,5.1-3.81,9.83-10.44,9.83A9.71,9.71,0,0,1,481,343.32c0-5,3.58-9.86,10.22-9.86C497.25,333.46,501.48,337.8,501.48,343.23Zm-17.69.09a7.13,7.13,0,0,0,7.3,7.17c4.06,0,7.56-2.41,7.56-7.28a7.19,7.19,0,0,0-7.39-7.17C486.53,336,483.79,339.26,483.79,343.32Zm4.92-14.59a1.53,1.53,0,0,1,1.49,1.48,1.51,1.51,0,0,1-1.49,1.49,1.5,1.5,0,0,1-1.48-1.49A1.53,1.53,0,0,1,488.71,328.73Zm5,0a1.53,1.53,0,0,1,1.49,1.48,1.51,1.51,0,0,1-1.49,1.49,1.49,1.49,0,0,1,0-3Z" transform="translate(-120.33 -226.78)"/><path class="cls-2" d="M510.1,333.71c3.81,0,5.8,2.52,5.8,5.32a4.76,4.76,0,0,1-3.19,4.71c1.12.73,1.65,1.17,3.5,4l3.36,5.1h-3.25l-3-4.7c-1.93-3-3.14-3.62-4.48-3.62h-1.24v8.32h-2.74v-19.1Zm-2.52,8.38h1.77c2,0,3.75-.51,3.75-3.06,0-1.84-1.12-2.91-3.19-2.91h-2.33Z" transform="translate(-120.33 -226.78)"/><path class="cls-2" d="M532.5,333.71v2.44h-8.09V342h7.81v2.44h-7.81v5.94h8.35v2.46H521.67v-19.1Z" transform="translate(-120.33 -226.78)"/><path class="cls-2" d="M538.53,333.71l12.79,14.82V333.71H554v19.1h-2.38l-12.68-14.7v14.7h-2.63v-19.1Z" transform="translate(-120.33 -226.78)"/><path class="cls-2" d="M560.9,333.71v19.1h-2.75v-19.1Z" transform="translate(-120.33 -226.78)"/><path class="cls-2" d="M567.36,333.71l12.8,14.82V333.71h2.63v19.1h-2.38l-12.68-14.7v14.7H565.1v-19.1Z" transform="translate(-120.33 -226.78)"/><path class="cls-2" d="M603.2,337.89a13.71,13.71,0,0,0-6.77-2,7.38,7.38,0,1,0,.11,14.75,11.7,11.7,0,0,0,4.31-.84v-4h-3.67v-2.41h6.42v8.06a16.17,16.17,0,0,1-7,1.57c-7.26,0-10.45-5.12-10.45-9.63a9.92,9.92,0,0,1,10.33-10,15.14,15.14,0,0,1,6.72,1.63Z" transform="translate(-120.33 -226.78)"/><path class="cls-2" d="M618.41,333.71v2.44h-8.09V342h7.81v2.44h-7.81v5.94h8.34v2.46H607.57v-19.1Z" transform="translate(-120.33 -226.78)"/><path class="cls-2" d="M624.43,333.71l12.79,14.82V333.71h2.64v19.1h-2.38l-12.69-14.7v14.7h-2.63v-19.1Z" transform="translate(-120.33 -226.78)"/><polygon class="cls-3" points="184.72 47.02 184.72 63.57 164.26 63.57 164.26 47.02 150.67 47.02 150.67 92.09 164.26 92.09 164.26 74.5 184.72 74.5 184.72 92.09 198.28 92.09 198.28 47.02 184.72 47.02"/><path class="cls-3" d="M358,305.14H334.64a8.19,8.19,0,0,0,3.36,4.95,10.08,10.08,0,0,0,6.05,1.91,31.45,31.45,0,0,0,13.07-3.31v7.25a35.13,35.13,0,0,1-6.23,2.42,33.14,33.14,0,0,1-9.31,1.09,21.93,21.93,0,0,1-10.41-2.27,15.22,15.22,0,0,1-6.42-6.18,18,18,0,0,1-2.13-8.85,17.64,17.64,0,0,1,2.13-8.73,14.78,14.78,0,0,1,6.42-6.05,22.68,22.68,0,0,1,10.41-2.19,18.16,18.16,0,0,1,7.78,1.74,14.16,14.16,0,0,1,6.18,5.69A19.19,19.19,0,0,1,358,302.8Zm-11-5.78a7.65,7.65,0,0,0-1.58-5.09,5.55,5.55,0,0,0-4.53-1.91,6.17,6.17,0,0,0-4.73,1.94,7.08,7.08,0,0,0-1.81,5.06Z" transform="translate(-120.33 -226.78)"/><path class="cls-3" d="M388.5,317a27.09,27.09,0,0,1-5,1.69,25,25,0,0,1-6.13.81q-12.66,0-12.65-12.36v-13.2h-5.3v-2.05l15.7-16h1.34v9.92h11.18v8.13H376.44v10.6a16,16,0,0,0,.22,3,3.12,3.12,0,0,0,1.29,1.91,5.45,5.45,0,0,0,3.2.76c1.87,0,4.31-.78,7.35-2.34Z" transform="translate(-120.33 -226.78)"/><path class="cls-3" d="M428,317.21c-1.72.67-3.3,1.22-4.76,1.63a19.41,19.41,0,0,1-5.23.61c-1.93,0-3.27-.34-4-1a5.73,5.73,0,0,1-1.63-2.49,17.68,17.68,0,0,1-4.19,2.52,15.56,15.56,0,0,1-6,1,11.91,11.91,0,0,1-5.84-1.25,7.11,7.11,0,0,1-3.12-3.15,9.09,9.09,0,0,1-.9-3.92,8,8,0,0,1,1.55-5.06,11.54,11.54,0,0,1,4.15-3.27,53.12,53.12,0,0,1,6.89-2.63l3.69-1.19c.83-.27,1.46-.48,1.87-.63a10.38,10.38,0,0,0,1.3-.59,6.32,6.32,0,0,0-1-3.77c-.64-.91-2.06-1.37-4.22-1.37a15.38,15.38,0,0,0-7.12,1.69,25,25,0,0,0-6,4.36v-9a21.94,21.94,0,0,1,4.72-2.56,28,28,0,0,1,5.3-1.48,32.54,32.54,0,0,1,5.59-.48q7.19,0,10.81,2.78a9.1,9.1,0,0,1,3.63,7.65V308.4a8,8,0,0,0,.34,2.71A1.25,1.25,0,0,0,425,312a7.28,7.28,0,0,0,3-.94Zm-16.3-6.34V303a32.69,32.69,0,0,0-6.08,3,4.25,4.25,0,0,0-1.92,3.66,3.25,3.25,0,0,0,1,2.53,3.18,3.18,0,0,0,2.23.88,4.88,4.88,0,0,0,2.39-.66,21.14,21.14,0,0,0,2.42-1.61" transform="translate(-120.33 -226.78)"/><path class="cls-3" d="M496.33,319H482.41l-3.67-9.14H459.16L455.42,319H441.5L461.44,274h15Zm-20.71-17L469,285.6l-6.66,16.46Z" transform="translate(-120.33 -226.78)"/><path class="cls-3" d="M528.17,287.71l-4.33,11.74a7.86,7.86,0,0,0-5.39-2.53,6.06,6.06,0,0,0-4.28,1.67c-1.2,1.12-2.36,3.18-3.46,6.2V319H499V285.92h11.71v8a16.59,16.59,0,0,1,3.9-5.78,9,9,0,0,1,6.57-2.81,9.4,9.4,0,0,1,3.46.58,26.11,26.11,0,0,1,3.53,1.79" transform="translate(-120.33 -226.78)"/><path class="cls-3" d="M566.94,302.71a18.55,18.55,0,0,1-2.24,9.54,14.19,14.19,0,0,1-5.73,5.58,15.37,15.37,0,0,1-7.09,1.79,15,15,0,0,1-4.5-.6,12.55,12.55,0,0,1-3-1.3,22.64,22.64,0,0,1-2.2-1.68v3H530.51V274h11.71v13.91a12.29,12.29,0,0,1,3.58-1.77,16.54,16.54,0,0,1,5.27-.76,16.17,16.17,0,0,1,7,1.45,13.64,13.64,0,0,1,5,3.91,17.07,17.07,0,0,1,2.88,5.55,21.85,21.85,0,0,1,.94,6.46m-12.33-.26q0-4.27-1.91-6.49a5.84,5.84,0,0,0-4.56-2.23,11.16,11.16,0,0,0-5.92,2.12v12.64a8.28,8.28,0,0,0,5.92,2.35,6.82,6.82,0,0,0,4.33-1.78c1.43-1.18,2.14-3.39,2.14-6.61" transform="translate(-120.33 -226.78)"/><path class="cls-3" d="M604.31,305.31H581a8.14,8.14,0,0,0,3.35,4.94,10.09,10.09,0,0,0,6,1.92,31.32,31.32,0,0,0,13.07-3.32v7.26a36.94,36.94,0,0,1-6.22,2.42,33.26,33.26,0,0,1-9.32,1.09,21.93,21.93,0,0,1-10.41-2.28,15.22,15.22,0,0,1-6.42-6.18,18.16,18.16,0,0,1-2.13-8.85,17.75,17.75,0,0,1,2.13-8.73,14.83,14.83,0,0,1,6.42-6.05,22.68,22.68,0,0,1,10.41-2.19,18.38,18.38,0,0,1,7.79,1.74,14.25,14.25,0,0,1,6.17,5.69,19.21,19.21,0,0,1,2.43,10.2Zm-11-5.79a7.72,7.72,0,0,0-1.57-5.09,5.57,5.57,0,0,0-4.54-1.91,6.17,6.17,0,0,0-4.73,1.94,7.14,7.14,0,0,0-1.81,5.06Z" transform="translate(-120.33 -226.78)"/><path class="cls-3" d="M634.85,317.11a27.09,27.09,0,0,1-5,1.69,25.08,25.08,0,0,1-6.14.82q-12.65,0-12.65-12.36v-13.2h-5.3V292l15.71-16h1.34v9.92H634v8.14H622.79v10.6a16.1,16.1,0,0,0,.22,3,3,3,0,0,0,1.29,1.9,5.45,5.45,0,0,0,3.2.77c1.86,0,4.32-.79,7.35-2.35Z" transform="translate(-120.33 -226.78)"/><path class="cls-3" d="M672.61,305.31H649.29a8.14,8.14,0,0,0,3.35,4.94,10.07,10.07,0,0,0,6.05,1.92,31.32,31.32,0,0,0,13.07-3.32v7.26a36.74,36.74,0,0,1-6.23,2.42,33.14,33.14,0,0,1-9.31,1.09,21.93,21.93,0,0,1-10.41-2.28,15.22,15.22,0,0,1-6.42-6.18,18.16,18.16,0,0,1-2.13-8.85,17.75,17.75,0,0,1,2.13-8.73,14.83,14.83,0,0,1,6.42-6.05,22.68,22.68,0,0,1,10.41-2.19,18.31,18.31,0,0,1,7.78,1.74,14.22,14.22,0,0,1,6.18,5.69,19.21,19.21,0,0,1,2.43,10.2Zm-11-5.79a7.72,7.72,0,0,0-1.57-5.09,5.57,5.57,0,0,0-4.54-1.91,6.17,6.17,0,0,0-4.73,1.94,7.14,7.14,0,0,0-1.81,5.06Z" transform="translate(-120.33 -226.78)"/><path class="cls-3" d="M711.05,319H699.34V301.18a11.74,11.74,0,0,0-.89-4.77c-.59-1.35-1.9-2-3.92-2a5.63,5.63,0,0,0-2.52.54,7.84,7.84,0,0,0-2,1.38,14.68,14.68,0,0,0-1.45,1.63q-.58.78-1.2,1.65V319H675.7V285.92h11.71v4.75a17,17,0,0,1,5.55-4.15,15.77,15.77,0,0,1,6.19-1.18q11.9,0,11.9,14.24Z" transform="translate(-120.33 -226.78)"/><path class="cls-3" d="M729.61,280.57a8.33,8.33,0,0,1-1.19,4.35,8.66,8.66,0,0,1-3.27,3.2,9.12,9.12,0,0,1-8.94,0,8.64,8.64,0,0,1-3.26-3.2,8.64,8.64,0,0,1-.5-7.76,8.56,8.56,0,0,1,1.94-2.78,9.13,9.13,0,0,1,12.61,0,8.49,8.49,0,0,1,2.61,6.21m-2.22-.19a6.39,6.39,0,0,0-.52-2.6,6.71,6.71,0,0,0-6.17-4.06,6.86,6.86,0,0,0-4.71,1.93,6.68,6.68,0,0,0-2,4.73,6.5,6.5,0,0,0,.9,3.35,6.59,6.59,0,0,0,2.43,2.43,6.49,6.49,0,0,0,3.35.89,6.63,6.63,0,0,0,3.37-.89,6.85,6.85,0,0,0,2.43-2.44,6.58,6.58,0,0,0,.89-3.34m-2.48,4.41h-2.6c-.48-1-.9-1.77-1.25-2.35a3.39,3.39,0,0,0-.81-1,1.87,1.87,0,0,0-.78-.15v3.53h-2.21v-8.87h4a4.06,4.06,0,0,1,2.34.6,2.18,2.18,0,0,1,.86,1.92,2,2,0,0,1-.74,1.73,4,4,0,0,1-1.67.73,2.82,2.82,0,0,1,1.13.83,11.34,11.34,0,0,1,.94,1.54Zm-2.76-6.22a.89.89,0,0,0-.45-.84,2.29,2.29,0,0,0-1.2-.27h-1v2.21h.95a2.66,2.66,0,0,0,1.29-.25.9.9,0,0,0,.44-.85" transform="translate(-120.33 -226.78)"/></svg>