<svg width="152" height="44" viewBox="0 0 152 44" xmlns="http://www.w3.org/2000/svg"><title>fora-logo</title><g fill="#008ECC" fill-rule="nonzero"><path d="M23.277.962h-3.292c0 10.562-8.562 19.125-19.125 19.125v3.291C13.241 23.377 23.277 13.341 23.277.962z"/><path d="M15.513.962h-3.291c0 6.274-5.087 11.361-11.361 11.361v3.291c8.092 0 14.652-6.561 14.652-14.652zM27.929 42.508h3.291c0-10.562 8.562-19.124 19.125-19.124v-3.291c-12.381 0-22.416 10.035-22.416 22.415z"/><path d="M35.693 42.508h3.291c0-6.274 5.086-11.361 11.36-11.361v-3.29c-8.092-.001-14.651 6.559-14.651 14.651zM28.818 12.329A30.064 30.064 0 0 0 31.04.962h-3.29c0 14.85-12.039 26.888-26.889 26.888v3.291h.002v.001h21.522a30.085 30.085 0 0 0-2.221 11.366h3.29c0-14.85 12.039-26.889 26.889-26.889v-3.291H28.818v.001zm-14.26 15.523a30.273 30.273 0 0 0 6.494-4.463h5.944a30.19 30.19 0 0 0-3.033 4.463h-9.405zm15.577-7.754h-5.938a30.228 30.228 0 0 0 3.044-4.479h9.404a30.225 30.225 0 0 0-6.51 4.479z"/><g><path d="M82.668 4.252v3.375H64.325v12.465h14.507v3.291H64.325v19.124h-4.112V4.252zM126.85 11.688l.505 3.6c-7.67.852-11.192 8.015-11.192 8.015v19.204h-3.777V12.329h2.691l.959 6.59c-.001 0 3.937-7.089 10.814-7.231zM141.622 11.676c8.813 0 9.498 6.52 9.498 8.518v22.313h-2.899l-.852-4.125c-.364.347-5.047 4.779-10.511 4.779-5.419 0-8.785-3.037-8.785-8.155 0-6.542 4.925-8.408 8.184-9.643 3.561-1.35 10.156-1.98 10.985-1.98v-1.945c0-3.012-.761-6.47-6.697-6.47-4.042 0-8.671 2.067-9.86 2.631l-.479-3.414c.784-.404 5.171-2.509 11.416-2.509zm-4.515 16.687c-3.557 1.347-5.284 3.374-5.284 6.196 0 1.429.402 5.342 5.6 5.342 4.919 0 9.562-4.328 9.819-4.578v-8.95c-.786 0-5.989.421-10.135 1.99zM85.595 38.82c-2.4-2.804-3.617-6.699-3.617-11.396 0-4.697 1.217-8.591 3.617-11.394 2.418-2.825 5.673-4.349 9.672-4.349 3.998 0 7.253 1.524 9.672 4.349 2.4 2.803 3.617 6.699 3.617 11.394 0 4.696-1.217 8.592-3.617 11.396-2.419 2.823-5.673 4.348-9.672 4.348-4 0-7.254-1.524-9.672-4.348zm2.7-20.382c-1.671 2.171-2.555 5.339-2.555 8.987 0 3.648.884 6.816 2.555 8.988 1.719 2.232 4.129 3.503 6.972 3.503 2.842 0 5.252-1.271 6.971-3.503 1.672-2.172 2.555-5.34 2.555-8.988 0-3.647-.883-6.815-2.555-8.987-1.719-2.232-4.129-3.503-6.971-3.503-2.843 0-5.253 1.271-6.972 3.503z"/></g></g></svg>