<svg xmlns="http://www.w3.org/2000/svg" version="1.1" xmlns:xlink="http://www.w3.org/1999/xlink" xmlns:svgjs="http://svgjs.dev/svgjs" width="1000" height="1000" viewBox="0 0 1000 1000"><rect width="1000" height="1000" fill="#ffffff"></rect><g transform="matrix(0.7,0,0,0.7,149.57575757575756,282.1265587044535)"><svg viewBox="0 0 396 247" data-background-color="#563286" preserveAspectRatio="xMidYMid meet" height="623" width="1000" xmlns="http://www.w3.org/2000/svg" xmlns:xlink="http://www.w3.org/1999/xlink"><g id="tight-bounds" transform="matrix(1,0,0,1,0.2400000000000091,-0.09999999999999432)"><svg viewBox="0 0 395.52 247.2" height="247.2" width="395.52"><g><svg></svg></g><g><svg viewBox="0 0 395.52 247.2" height="247.2" width="395.52"><g transform="matrix(1,0,0,1,75.54432,103.26990219424694)"><svg viewBox="0 0 244.43135999999998 40.660195611506104" height="40.660195611506104" width="244.43135999999998"><g><svg viewBox="0 0 332.210628694285 55.26193180339483" height="40.660195611506104" width="244.43135999999998"><g transform="matrix(1,0,0,1,87.779268694285,7.63750287586716)"><svg viewBox="0 0 244.43135999999998 39.98692605166051" height="39.98692605166051" width="244.43135999999998"><g><svg viewBox="0 0 244.43135999999998 39.98692605166051" height="39.98692605166051" width="244.43135999999998"><g><svg viewBox="0 0 244.43135999999998 39.98692605166051" height="39.98692605166051" width="244.43135999999998"><g transform="matrix(1,0,0,1,0,0)"><svg width="244.43135999999998" viewBox="1.600000023841858 -36.150001525878906 284.5299987792969 46.55000305175781" height="39.98692605166051" data-palette-color="#f6f6f2"><path d="M2.1-34.5L13.45-34.5Q19.35-34.5 22.03-33.77 24.7-33.05 25.85-32.05L25.85-32.05Q28.4-29.85 28.4-25.3L28.4-25.3Q28.4-21.9 24.75-18.85L24.75-18.85Q29.4-16.5 29.4-10.1L29.4-10.1Q29.4-5.1 26.13-2.68 22.85-0.25 16.35 0L16.35 0 2.1 0 1.6-4.15Q2.25-5 4.35-5.8L4.35-5.8 4.35-28.65Q2.3-29.4 1.6-30.35L1.6-30.35 2.1-34.5ZM16-14.95L16-14.95 11.55-14.95 11.55-5.45 15-5.45Q18.4-5.45 20.15-6.45 21.9-7.45 21.9-10.05 21.9-12.65 20.53-13.8 19.15-14.95 16-14.95ZM14.15-29.05L14.15-29.05 11.55-29.05 11.55-20.4 15.65-20.4Q18.2-20.4 19.55-21.7 20.9-23 20.9-24.88 20.9-26.75 19.95-27.7 19-28.65 17.75-28.85 16.5-29.05 14.15-29.05ZM37.9 5.8L38.6 5.8Q39.5 5.8 40.52 4.13 41.55 2.45 41.95 0.15L41.95 0.15 33.75-19.25Q31.3-20.05 30.45-21.15L30.45-21.15 30.95-25 42.45-25 42.95-21.15Q42.3-20.35 40.75-19.7L40.75-19.7 43.5-12.15Q44.4-9.8 44.75-7.5L44.75-7.5 44.9-6.8 45.6-6.8Q46-9.3 47-12.05L47-12.05 49.65-19.45Q47.8-20.15 47.05-21.15L47.05-21.15 47.55-25 58.55-25 59.05-21.15Q58.15-20 55.75-19.2L55.75-19.2 47.5 0.3Q45.15 5.85 43.9 7.45L43.9 7.45Q41.7 10.4 37.77 10.4 33.85 10.4 31.8 8.35L31.8 8.35Q31.75 7.85 31.75 7.35L31.75 7.35Q31.75 4.6 32.9 2.15L32.9 2.15 37.05 2.15Q37.8 3.5 37.9 5.8L37.9 5.8ZM71.75 5.3L71.75 5.3Q76.2 5.3 76.2-0.05L76.2-0.05 76.2-2.25Q73.75-0.75 70.05-0.75L70.05-0.75Q65.35-0.75 62.82-3.5 60.3-6.25 60.3-12.65L60.3-12.65Q60.3-25.4 72-25.4L72-25.4Q75-25.4 77.6-24.1L77.6-24.1Q78.1-25 79.1-25L79.1-25 83.2-25 83.2-0.4Q83.2 5.1 80.47 7.75 77.75 10.4 72.05 10.4L72.05 10.4Q69.05 10.4 65.85 9.7 62.65 9 61 7.95L61 7.95Q60.95 7.5 60.95 7.05L60.95 7.05Q60.95 4.3 62.25 1.75L62.25 1.75 66.65 1.75Q67.2 2.8 67.45 4.55L67.45 4.55Q69.35 5.3 71.75 5.3ZM67.2-12.95Q67.2-9.2 68.22-7.7 69.25-6.2 71.72-6.2 74.2-6.2 76.2-7.6L76.2-7.6 76.2-19.45Q74.2-20.3 71.85-20.3L71.85-20.3Q67.2-20.3 67.2-12.95L67.2-12.95ZM98.49 5.3L98.49 5.3Q102.94 5.3 102.94-0.05L102.94-0.05 102.94-2.25Q100.49-0.75 96.79-0.75L96.79-0.75Q92.09-0.75 89.57-3.5 87.04-6.25 87.04-12.65L87.04-12.65Q87.04-25.4 98.74-25.4L98.74-25.4Q101.74-25.4 104.34-24.1L104.34-24.1Q104.84-25 105.84-25L105.84-25 109.94-25 109.94-0.4Q109.94 5.1 107.22 7.75 104.49 10.4 98.79 10.4L98.79 10.4Q95.79 10.4 92.59 9.7 89.39 9 87.74 7.95L87.74 7.95Q87.69 7.5 87.69 7.05L87.69 7.05Q87.69 4.3 88.99 1.75L88.99 1.75 93.39 1.75Q93.94 2.8 94.19 4.55L94.19 4.55Q96.09 5.3 98.49 5.3ZM93.94-12.95Q93.94-9.2 94.97-7.7 95.99-6.2 98.47-6.2 100.94-6.2 102.94-7.6L102.94-7.6 102.94-19.45Q100.94-20.3 98.59-20.3L98.59-20.3Q93.94-20.3 93.94-12.95L93.94-12.95ZM137.44-8.7L137.44 0 114.54 0 114.04-4.15Q114.69-5 116.79-5.8L116.79-5.8 116.79-28.65Q114.74-29.4 114.04-30.35L114.04-30.35 114.54-34.5 126.24-34.5 126.74-30.35Q125.94-29.4 123.99-28.65L123.99-28.65 123.99-5.45 131.89-5.45Q132.54-8.05 133.74-9.15L133.74-9.15 137.44-8.7ZM141.34 5.8L142.04 5.8Q142.94 5.8 143.96 4.13 144.99 2.45 145.39 0.15L145.39 0.15 137.19-19.25Q134.74-20.05 133.89-21.15L133.89-21.15 134.39-25 145.89-25 146.39-21.15Q145.74-20.35 144.19-19.7L144.19-19.7 146.94-12.15Q147.84-9.8 148.19-7.5L148.19-7.5 148.34-6.8 149.04-6.8Q149.44-9.3 150.44-12.05L150.44-12.05 153.09-19.45Q151.24-20.15 150.49-21.15L150.49-21.15 150.99-25 161.99-25 162.49-21.15Q161.59-20 159.19-19.2L159.19-19.2 150.94 0.3Q148.59 5.85 147.34 7.45L147.34 7.45Q145.14 10.4 141.21 10.4 137.29 10.4 135.24 8.35L135.24 8.35Q135.19 7.85 135.19 7.35L135.19 7.35Q135.19 4.6 136.34 2.15L136.34 2.15 140.49 2.15Q141.24 3.5 141.34 5.8L141.34 5.8ZM175.44-20.3L175.44-20.3Q170.84-20.3 170.84-12.4L170.84-12.4Q170.84-8.4 172.11-6.83 173.39-5.25 175.79-5.25L175.79-5.25Q179.59-5.25 182.49-5.95L182.49-5.95 183.99-2.1Q182.39-1.05 179.69-0.33 176.99 0.4 174.44 0.4L174.44 0.4Q163.64 0.4 163.64-12.1L163.64-12.1Q163.64-19.4 167.39-22.6L167.39-22.6Q170.74-25.4 175.54-25.4 180.34-25.4 183.54-23.6L183.54-23.6Q183.59-23.1 183.59-22.65L183.59-22.65Q183.59-19.8 182.29-17.25L182.29-17.25 177.89-17.25Q177.19-18.5 177.04-20.25L177.04-20.25Q176.44-20.3 175.44-20.3ZM185.58-31.65L186.08-35.5Q188.88-36.15 191.28-36.15 193.68-36.15 195.33-36L195.33-36 195.33-5.55Q197.28-4.8 198.08-3.85L198.08-3.85 197.58 0 186.08 0 185.58-3.85Q186.28-4.8 188.33-5.55L188.33-5.55 188.33-29.95Q186.58-30.55 185.58-31.65L185.58-31.65ZM212.63 0L204.63 0 195.78-12.95 201.28-20.1Q200.43-20.6 200.08-21.15L200.08-21.15 200.58-25 211.58-25 212.08-21.15Q210.98-19.75 207.93-18.95L207.93-18.95 203.13-13.45 208.78-6Q211.88-5.3 213.13-3.85L213.13-3.85 212.63 0ZM237.13-34.75L243.98-34.75 253.93-5.9Q256.03-5.15 256.88-4.15L256.88-4.15 256.38 0 244.68 0 244.18-4.15Q244.78-4.95 246.58-5.65L246.58-5.65 245.23-9.85 235.23-9.85 233.98-5.8Q235.73-5.1 236.58-4.15L236.58-4.15 236.08 0 224.68 0 224.18-4.15Q225.08-5.3 227.53-6.05L227.53-6.05 237.13-34.75ZM240.53-27.75L239.83-27.75Q239.83-24.7 238.58-20.65L238.58-20.65 236.63-14.45 243.78-14.45 241.88-20.55Q240.73-24.05 240.58-26.9L240.58-26.9 240.53-27.75ZM258.83-34.5L270.18-34.5Q276.08-34.5 278.75-33.77 281.43-33.05 282.58-32.05L282.58-32.05Q285.13-29.85 285.13-25.3L285.13-25.3Q285.13-21.9 281.48-18.85L281.48-18.85Q286.13-16.5 286.13-10.1L286.13-10.1Q286.13-5.1 282.85-2.68 279.58-0.25 273.08 0L273.08 0 258.83 0 258.33-4.15Q258.98-5 261.08-5.8L261.08-5.8 261.08-28.65Q259.03-29.4 258.33-30.35L258.33-30.35 258.83-34.5ZM272.73-14.95L272.73-14.95 268.28-14.95 268.28-5.45 271.73-5.45Q275.13-5.45 276.88-6.45 278.63-7.45 278.63-10.05 278.63-12.65 277.25-13.8 275.88-14.95 272.73-14.95ZM270.88-29.05L270.88-29.05 268.28-29.05 268.28-20.4 272.38-20.4Q274.93-20.4 276.28-21.7 277.63-23 277.63-24.88 277.63-26.75 276.68-27.7 275.73-28.65 274.48-28.85 273.23-29.05 270.88-29.05Z" opacity="1" transform="matrix(1,0,0,1,0,0)" fill="#000000" class="undefined-text-0" data-fill-palette-color="primary" id="text-0"></path></svg></g></svg></g></svg></g></svg></g><g><svg viewBox="0 0 78.3393151397132 55.26193180339483" height="55.26193180339483" width="78.3393151397132"><g><svg xmlns="http://www.w3.org/2000/svg" xmlns:xlink="http://www.w3.org/1999/xlink" version="1.1" x="0" y="0" viewBox="5.699999809265137 18.700000762939453 88.60000610351562 62.500003814697266" style="enable-background:new 0 0 100 100;" xml:space="preserve" height="55.26193180339483" width="78.3393151397132" class="icon-icon-0" data-fill-palette-color="accent" id="icon-0"><path d="M94.3 71.1H53.7v-2.3h32.9v-1.7H53.7V47.7L83 63.2l0.8-1.5L53.7 45.7v-2.7l29.1 15.4 0.8-1.5L53.7 41.1V31H52v9.2l-5.4-2.9V18.7h-1.7v17.7l-13.4-7.1v0l0 0 0 0 0 0L5.7 43.5v6.6l5.7-3.1v25.8h20.1v0H52v8.4h1.7v-8.4h40.6V71.1zM52 67.1h-5.4V43.9l5.4 2.9V67.1zM52 42.2v2.7L46.5 42v-2.7L52 42.2zM44.8 38.4V41L31.4 34v-2.7L44.8 38.4zM17.2 43.8L31.4 36v0L44.8 43v24h-9.1V57H28v10.1h-4.3-6.5V43.8zM44.8 68.8v2.3h-9.1v-2.3H44.8zM46.5 71.1v-2.3H52v2.3H46.5z" fill="#000000" data-fill-palette-color="accent"></path></svg></g></svg></g></svg></g></svg></g><path d="M185.184 97.27L185.184 33.032 4.048 33.032 4.048 214.168 185.184 214.168 185.184 149.93 182.531 149.93 182.531 211.515 6.701 211.515 6.701 35.685 182.531 35.685 182.531 97.27Z" fill="#000000" stroke="transparent" data-fill-palette-color="primary"></path></svg></g><defs></defs></svg><rect width="395.52" height="247.2" fill="none" stroke="none" visibility="hidden"></rect></g></svg></g></svg>